<?xml version="1.0" encoding="UTF-8" standalone="no"?>
<!DOCTYPE svg PUBLIC "-//W3C//DTD SVG 1.1//EN"
 "http://www.w3.org/Graphics/SVG/1.1/DTD/svg11.dtd">
<!-- Generated by graphviz version 2.49.1 (20210923.0004)
 -->
<!-- Title: network_hierarchy Pages: 1 -->
<svg width="464pt" height="466pt"
 viewBox="0.00 0.00 464.00 465.90" xmlns="http://www.w3.org/2000/svg" xmlns:xlink="http://www.w3.org/1999/xlink">
<g id="graph0" class="graph" transform="scale(1 1) rotate(0) translate(4 461.9)">
<title>network_hierarchy</title>
<polygon fill="#323232" fill-opacity="0.631373" stroke="transparent" points="-4,4 -4,-461.9 460,-461.9 460,4 -4,4"/>
<g id="clust1" class="cluster">
<title>cluster_hierarchy</title>
<path fill="transparent" stroke="transparent" d="M20,-8C20,-8 436,-8 436,-8 442,-8 448,-14 448,-20 448,-20 448,-437.9 448,-437.9 448,-443.9 442,-449.9 436,-449.9 436,-449.9 20,-449.9 20,-449.9 14,-449.9 8,-443.9 8,-437.9 8,-437.9 8,-20 8,-20 8,-14 14,-8 20,-8"/>
</g>
<g id="clust6" class="cluster">
<title>cluster_lvl_4</title>
<path fill="#383838" stroke="transparent" d="M28,-16C28,-16 375,-16 375,-16 381,-16 387,-22 387,-28 387,-28 387,-79 387,-79 387,-85 381,-91 375,-91 375,-91 28,-91 28,-91 22,-91 16,-85 16,-79 16,-79 16,-28 16,-28 16,-22 22,-16 28,-16"/>
<text text-anchor="middle" x="201.5" y="-23.8" font-family="Times New Roman,serif" font-size="14.00" fill="#fef9a9">Network Level 4 (highest)</text>
</g>
<g id="clust3" class="cluster">
<title>cluster_lvl_1</title>
<path fill="#383838" stroke="transparent" d="M28,-277C28,-277 428,-277 428,-277 434,-277 440,-283 440,-289 440,-289 440,-340 440,-340 440,-346 434,-352 428,-352 428,-352 28,-352 28,-352 22,-352 16,-346 16,-340 16,-340 16,-289 16,-289 16,-283 22,-277 28,-277"/>
<text text-anchor="middle" x="228" y="-336.8" font-family="Times New Roman,serif" font-size="14.00" fill="#fef9a9">Network Level 1 &#160;&#160;&#160;&#160;&#160;&#160;&#160;&#160;&#160;&#160;&#160;&#160;&#160;&#160;&#160;&#160;&#160;&#160;&#160;&#160;&#160;&#160;&#160;&#160;&#160;&#160;&#160;&#160;&#160;&#160;&#160;&#160;&#160;&#160;&#160;&#160;&#160;&#160;&#160;&#160;&#160;&#160;&#160;&#160;&#160;&#160;&#160;&#160;&#160;&#160;&#160;&#160;&#160;&#160;&#160;&#160;&#160;&#160;&#160;&#160;&#160;&#160;&#160;&#160;&#160;&#160;&#160;&#160;&#160;&#160;&#160;&#160;&#160;&#160;&#160;&#160;&#160;&#160;&#160;&#160;&#160;&#160;&#160;</text>
</g>
<g id="clust4" class="cluster">
<title>cluster_lvl_2</title>
<path fill="#383838" stroke="transparent" d="M28,-194C28,-194 428,-194 428,-194 434,-194 440,-200 440,-206 440,-206 440,-257 440,-257 440,-263 434,-269 428,-269 428,-269 28,-269 28,-269 22,-269 16,-263 16,-257 16,-257 16,-206 16,-206 16,-200 22,-194 28,-194"/>
<text text-anchor="middle" x="228" y="-253.8" font-family="Times New Roman,serif" font-size="14.00" fill="#fef9a9">Network Level 2 &#160;&#160;&#160;&#160;&#160;&#160;&#160;&#160;&#160;&#160;&#160;&#160;&#160;&#160;&#160;&#160;&#160;&#160;&#160;&#160;&#160;&#160;&#160;&#160;&#160;&#160;&#160;&#160;&#160;&#160;&#160;&#160;&#160;&#160;&#160;&#160;&#160;&#160;&#160;&#160;&#160;&#160;&#160;&#160;&#160;&#160;&#160;&#160;&#160;&#160;&#160;&#160;&#160;&#160;&#160;&#160;&#160;&#160;&#160;&#160;&#160;&#160;&#160;&#160;&#160;&#160;&#160;&#160;&#160;&#160;&#160;&#160;&#160;&#160;&#160;&#160;&#160;&#160;&#160;&#160;&#160;&#160;&#160;</text>
</g>
<g id="clust2" class="cluster">
<title>cluster_lvl_0</title>
<path fill="#383838" stroke="transparent" d="M130,-360C130,-360 296,-360 296,-360 302,-360 308,-366 308,-372 308,-372 308,-429.9 308,-429.9 308,-435.9 302,-441.9 296,-441.9 296,-441.9 130,-441.9 130,-441.9 124,-441.9 118,-435.9 118,-429.9 118,-429.9 118,-372 118,-372 118,-366 124,-360 130,-360"/>
<text text-anchor="middle" x="213" y="-426.7" font-family="Times New Roman,serif" font-size="14.00" fill="#fef9a9">Network Level 0 (master node)</text>
</g>
<g id="clust5" class="cluster">
<title>cluster_lvl_3</title>
<path fill="#383838" stroke="transparent" d="M28,-111C28,-111 428,-111 428,-111 434,-111 440,-117 440,-123 440,-123 440,-174 440,-174 440,-180 434,-186 428,-186 428,-186 28,-186 28,-186 22,-186 16,-180 16,-174 16,-174 16,-123 16,-123 16,-117 22,-111 28,-111"/>
<text text-anchor="middle" x="228" y="-170.8" font-family="Times New Roman,serif" font-size="14.00" fill="#fef9a9">Network Level 3 &#160;&#160;&#160;&#160;&#160;&#160;&#160;&#160;&#160;&#160;&#160;&#160;&#160;&#160;&#160;&#160;&#160;&#160;&#160;&#160;&#160;&#160;&#160;&#160;&#160;&#160;&#160;&#160;&#160;&#160;&#160;&#160;&#160;&#160;&#160;&#160;&#160;&#160;&#160;&#160;&#160;&#160;&#160;&#160;&#160;&#160;&#160;&#160;&#160;&#160;&#160;&#160;&#160;&#160;&#160;&#160;&#160;&#160;&#160;&#160;&#160;&#160;&#160;&#160;&#160;&#160;&#160;&#160;&#160;&#160;&#160;&#160;&#160;&#160;&#160;&#160;&#160;&#160;&#160;&#160;&#160;&#160;&#160;</text>
</g>
<!-- 00 -->
<g id="node1" class="node">
<title>00</title>
<defs>
<radialGradient id="r_0" cx="50%" cy="50%" r="75%" fx="50%" fy="50%">
<stop offset="0" style="stop-color:#000000;stop-opacity:1.;"/>
<stop offset="1" style="stop-color:#018268;stop-opacity:1.;"/>
</radialGradient>
</defs>
<ellipse fill="url(#r_0)" stroke="#fefefe" stroke-opacity="0.498039" cx="200" cy="-389.45" rx="21.4" ry="21.4"/>
<text text-anchor="middle" x="200" y="-385.75" font-family="Arial" font-size="14.00" fill="#fefefe">00</text>
</g>
<!-- 01 -->
<g id="node2" class="node">
<title>01</title>
<ellipse fill="#3e0180" stroke="#fefefe" stroke-opacity="0.498039" cx="257" cy="-303" rx="27" ry="18"/>
<text text-anchor="middle" x="257" y="-299.3" font-family="Arial" font-size="14.00" fill="#fefefe">01</text>
</g>
<!-- 00&#45;&#45;01 -->
<g id="edge5" class="edge">
<title>00&#45;&#45;01</title>
<path fill="none" stroke="#fefefe" stroke-width="2" d="M211.53,-371.36C221.75,-356.23 236.54,-334.32 246.44,-319.64"/>
</g>
<!-- 04 -->
<g id="node3" class="node">
<title>04</title>
<ellipse fill="#3e0180" stroke="#fefefe" stroke-opacity="0.498039" cx="159" cy="-303" rx="27" ry="18"/>
<text text-anchor="middle" x="159" y="-299.3" font-family="Arial" font-size="14.00" fill="#fefefe">04</text>
</g>
<!-- 00&#45;&#45;04 -->
<g id="edge1" class="edge">
<title>00&#45;&#45;04</title>
<path fill="none" stroke="#fefefe" stroke-width="2" d="M190.9,-369.71C183.73,-354.93 173.83,-334.54 166.97,-320.41"/>
</g>
<!-- 021 -->
<g id="node5" class="node">
<title>021</title>
<ellipse fill="#014b80" stroke="#fefefe" stroke-opacity="0.498039" cx="257" cy="-220" rx="27" ry="18"/>
<text text-anchor="middle" x="257" y="-216.3" font-family="Arial" font-size="14.00" fill="#fefefe">021</text>
</g>
<!-- 01&#45;&#45;021 -->
<g id="edge8" class="edge">
<title>01&#45;&#45;021</title>
<path fill="none" stroke="#fefefe" stroke-width="2" d="M257,-284.82C257,-271.08 257,-251.89 257,-238.15"/>
</g>
<!-- 011 -->
<g id="node6" class="node">
<title>011</title>
<ellipse fill="#014b80" stroke="#fefefe" stroke-opacity="0.498039" cx="376" cy="-220" rx="27" ry="18"/>
<text text-anchor="middle" x="376" y="-216.3" font-family="Arial" font-size="14.00" fill="#fefefe">011</text>
</g>
<!-- 01&#45;&#45;011 -->
<g id="edge6" class="edge">
<title>01&#45;&#45;011</title>
<path fill="none" stroke="#fefefe" stroke-width="2" d="M275.33,-289.52C297.76,-274.26 335.49,-248.57 357.84,-233.36"/>
</g>
<!-- 014 -->
<g id="node4" class="node">
<title>014</title>
<ellipse fill="#014b80" stroke="#fefefe" stroke-opacity="0.498039" cx="154" cy="-220" rx="27" ry="18"/>
<text text-anchor="middle" x="154" y="-216.3" font-family="Arial" font-size="14.00" fill="#fefefe">014</text>
</g>
<!-- 04&#45;&#45;014 -->
<g id="edge2" class="edge">
<title>04&#45;&#45;014</title>
<path fill="none" stroke="#fefefe" stroke-width="2" d="M157.94,-284.82C157.09,-271.08 155.91,-251.89 155.06,-238.15"/>
</g>
<!-- 0114 -->
<g id="node10" class="node">
<title>0114</title>
<ellipse fill="#0e6902" stroke="#fefefe" stroke-opacity="0.498039" cx="151" cy="-137" rx="32.49" ry="18"/>
<text text-anchor="middle" x="151" y="-133.3" font-family="Arial" font-size="14.00" fill="#fefefe">0114</text>
</g>
<!-- 014&#45;&#45;0114 -->
<g id="edge3" class="edge">
<title>014&#45;&#45;0114</title>
<path fill="none" stroke="#fefefe" stroke-width="2" d="M153.36,-201.82C152.85,-188.08 152.14,-168.89 151.64,-155.15"/>
</g>
<!-- 0121 -->
<g id="node8" class="node">
<title>0121</title>
<ellipse fill="#0e6902" stroke="#fefefe" stroke-opacity="0.498039" cx="317" cy="-137" rx="32.49" ry="18"/>
<text text-anchor="middle" x="317" y="-133.3" font-family="Arial" font-size="14.00" fill="#fefefe">0121</text>
</g>
<!-- 021&#45;&#45;0121 -->
<g id="edge9" class="edge">
<title>021&#45;&#45;0121</title>
<path fill="none" stroke="#fefefe" stroke-width="2" d="M268.57,-203.38C279.13,-189.13 294.65,-168.17 305.26,-153.85"/>
</g>
<!-- 0221 -->
<g id="node9" class="node">
<title>0221</title>
<ellipse fill="#0e6902" stroke="#fefefe" stroke-opacity="0.498039" cx="234" cy="-137" rx="32.49" ry="18"/>
<text text-anchor="middle" x="234" y="-133.3" font-family="Arial" font-size="14.00" fill="#fefefe">0221</text>
</g>
<!-- 021&#45;&#45;0221 -->
<g id="edge10" class="edge">
<title>021&#45;&#45;0221</title>
<path fill="none" stroke="#fefefe" stroke-width="2" d="M252.23,-202.22C248.31,-188.41 242.78,-168.92 238.84,-155.04"/>
</g>
<!-- 0111 -->
<g id="node7" class="node">
<title>0111</title>
<ellipse fill="#0e6902" stroke="#fefefe" stroke-opacity="0.498039" cx="400" cy="-137" rx="32.49" ry="18"/>
<text text-anchor="middle" x="400" y="-133.3" font-family="Arial" font-size="14.00" fill="#fefefe">0111</text>
</g>
<!-- 011&#45;&#45;0111 -->
<g id="edge7" class="edge">
<title>011&#45;&#45;0111</title>
<path fill="none" stroke="#fefefe" stroke-width="2" d="M380.97,-202.22C385.06,-188.41 390.84,-168.92 394.95,-155.04"/>
</g>
<!-- 01221 -->
<g id="node11" class="node">
<title>01221</title>
<ellipse fill="#80010b" stroke="#fefefe" stroke-opacity="0.498039" cx="341" cy="-65" rx="37.89" ry="18"/>
<text text-anchor="middle" x="341" y="-61.3" font-family="Arial" font-size="14.00" fill="#fefefe">01221</text>
</g>
<!-- 0221&#45;&#45;01221 -->
<g id="edge11" class="edge">
<title>0221&#45;&#45;01221</title>
<path fill="none" stroke="#fefefe" stroke-width="2" d="M254.13,-122.83C272.77,-110.64 300.42,-92.55 319.5,-80.07"/>
</g>
<!-- 01114 -->
<g id="node12" class="node">
<title>01114</title>
<ellipse fill="#80010b" stroke="#fefefe" stroke-opacity="0.498039" cx="248" cy="-65" rx="37.89" ry="18"/>
<text text-anchor="middle" x="248" y="-61.3" font-family="Arial" font-size="14.00" fill="#fefefe">01114</text>
</g>
<!-- 0114&#45;&#45;01114 -->
<g id="edge4" class="edge">
<title>0114&#45;&#45;01114</title>
<path fill="none" stroke="#fefefe" stroke-width="2" d="M170.16,-122.17C186.84,-110.14 210.92,-92.76 227.87,-80.52"/>
</g>
<!-- 02114 -->
<g id="node13" class="node">
<title>02114</title>
<ellipse fill="#80010b" stroke="#fefefe" stroke-opacity="0.498039" cx="155" cy="-65" rx="37.89" ry="18"/>
<text text-anchor="middle" x="155" y="-61.3" font-family="Arial" font-size="14.00" fill="#fefefe">02114</text>
</g>
<!-- 0114&#45;&#45;02114 -->
<g id="edge12" class="edge">
<title>0114&#45;&#45;02114</title>
<path fill="none" stroke="#fefefe" stroke-width="2" d="M151.99,-118.7C152.61,-107.85 153.4,-93.92 154.02,-83.1"/>
</g>
<!-- 03114 -->
<g id="node14" class="node">
<title>03114</title>
<ellipse fill="#80010b" stroke="#fefefe" stroke-opacity="0.498039" cx="62" cy="-65" rx="37.89" ry="18"/>
<text text-anchor="middle" x="62" y="-61.3" font-family="Arial" font-size="14.00" fill="#fefefe">03114</text>
</g>
<!-- 0114&#45;&#45;03114 -->
<g id="edge13" class="edge">
<title>0114&#45;&#45;03114</title>
<path fill="none" stroke="#fefefe" stroke-width="2" d="M132.99,-121.83C117.85,-109.93 96.29,-92.97 80.91,-80.87"/>
</g>
</g>
</svg>
